<svg width="21" height="27" viewBox="0 0 21 27" fill="none" xmlns="http://www.w3.org/2000/svg">
<path d="M17.7287 3.30842C17.7673 3.38575 17.7867 3.46308 17.7867 3.54042C17.7867 3.57908 17.806 3.63708 17.8447 3.71442C17.922 3.86908 17.9027 4.02375 17.7867 4.17842C17.6707 4.33308 17.5547 4.37175 17.4387 4.29442C17.052 4.21708 16.6653 4.10108 16.2787 3.94642C15.892 3.75308 15.5053 3.57908 15.1187 3.42442C14.732 3.26975 14.3453 3.15375 13.9587 3.07642C13.572 2.99908 13.2047 3.01842 12.8567 3.13442C12.0833 3.36642 11.2713 3.73375 10.4207 4.23642C9.60867 4.73908 8.79667 5.37708 7.98467 6.15042C7.21133 6.88508 6.47667 7.75508 5.78067 8.76042C5.12333 9.76575 4.56267 10.8871 4.09867 12.1244C3.51867 13.8258 3.34467 15.4304 3.57667 16.9384C3.80867 18.4078 4.33067 19.6451 5.14267 20.6504C5.99333 21.6558 7.076 22.3904 8.39067 22.8544C9.744 23.2798 11.2713 23.3184 12.9727 22.9704C14.21 22.6998 15.3893 22.2551 16.5107 21.6364C17.632 21.0178 18.676 20.3798 19.6427 19.7224C19.4493 20.0318 19.2753 20.3024 19.1207 20.5344C18.966 20.7664 18.734 21.0371 18.4247 21.3464C18.2313 21.5398 18.038 21.8104 17.8447 22.1584C17.6513 22.4678 17.458 22.7191 17.2647 22.9124C15.9113 24.3818 14.268 25.4451 12.3347 26.1024C11.9093 26.2571 11.542 26.3344 11.2327 26.3344C10.9233 26.3731 10.556 26.4311 10.1307 26.5084C9.512 26.5084 8.89333 26.5278 8.27467 26.5664C7.656 26.6051 7.05667 26.5278 6.47667 26.3344C4.77533 25.7544 3.32533 24.6331 2.12667 22.9704C1.58533 22.2358 1.12133 21.3464 0.734667 20.3024C0.386667 19.2198 0.154667 18.0984 0.0386667 16.9384C-0.0386667 15.7398 0 14.5604 0.154667 13.4004C0.309333 12.2404 0.638 11.1578 1.14067 10.1524C2.18467 7.90975 3.422 5.89908 4.85267 4.12042C6.322 2.34175 8.062 1.10442 10.0727 0.408417C11.426 -0.0942501 13.05 -0.132917 14.9447 0.292417C15.4087 0.48575 15.9307 0.872417 16.5107 1.45242C16.704 1.64575 16.8973 1.83908 17.0907 2.03242C17.284 2.22575 17.4773 2.49642 17.6707 2.84442C17.7093 2.92175 17.7093 2.99908 17.6707 3.07642C17.6707 3.15375 17.69 3.23108 17.7287 3.30842Z" fill="#00AEEF"/>
<path d="M18.7287 3.30842C18.7673 3.38575 18.7867 3.46308 18.7867 3.54042C18.7867 3.57908 18.806 3.63708 18.8447 3.71442C18.922 3.86908 18.9027 4.02375 18.7867 4.17842C18.6707 4.33308 18.5547 4.37175 18.4387 4.29442C18.052 4.21708 17.6653 4.10108 17.2787 3.94642C16.892 3.75308 16.5053 3.57908 16.1187 3.42442C15.732 3.26975 15.3453 3.15375 14.9587 3.07642C14.572 2.99908 14.2047 3.01842 13.8567 3.13442C13.0833 3.36642 12.2713 3.73375 11.4207 4.23642C10.6087 4.73908 9.79667 5.37708 8.98467 6.15042C8.21133 6.88508 7.47667 7.75508 6.78067 8.76042C6.12333 9.76575 5.56267 10.8871 5.09867 12.1244C4.51867 13.8258 4.34467 15.4304 4.57667 16.9384C4.80867 18.4078 5.33067 19.6451 6.14267 20.6504C6.99333 21.6558 8.076 22.3904 9.39067 22.8544C10.744 23.2798 12.2713 23.3184 13.9727 22.9704C15.21 22.6998 16.3893 22.2551 17.5107 21.6364C18.632 21.0178 19.676 20.3798 20.6427 19.7224C20.4493 20.0318 20.2753 20.3024 20.1207 20.5344C19.966 20.7664 19.734 21.0371 19.4247 21.3464C19.2313 21.5398 19.038 21.8104 18.8447 22.1584C18.6513 22.4678 18.458 22.7191 18.2647 22.9124C16.9113 24.3818 15.268 25.4451 13.3347 26.1024C12.9093 26.2571 12.542 26.3344 12.2327 26.3344C11.9233 26.3731 11.556 26.4311 11.1307 26.5084C10.512 26.5084 9.89333 26.5278 9.27467 26.5664C8.656 26.6051 8.05667 26.5278 7.47667 26.3344C5.77533 25.7544 4.32533 24.6331 3.12667 22.9704C2.58533 22.2358 2.12133 21.3464 1.73467 20.3024C1.38667 19.2198 1.15467 18.0984 1.03867 16.9384C0.961333 15.7398 1 14.5604 1.15467 13.4004C1.30933 12.2404 1.638 11.1578 2.14067 10.1524C3.18467 7.90975 4.422 5.89908 5.85267 4.12042C7.322 2.34175 9.062 1.10442 11.0727 0.408417C12.426 -0.0942501 14.05 -0.132917 15.9447 0.292417C16.4087 0.48575 16.9307 0.872417 17.5107 1.45242C17.704 1.64575 17.8973 1.83908 18.0907 2.03242C18.284 2.22575 18.4773 2.49642 18.6707 2.84442C18.7093 2.92175 18.7093 2.99908 18.6707 3.07642C18.6707 3.15375 18.69 3.23108 18.7287 3.30842Z" fill="#8A2BE2"/>
</svg>
